<svg xmlns="http://www.w3.org/2000/svg" xmlns:xlink="http://www.w3.org/1999/xlink" width="1024" zoomAndPan="magnify" viewBox="0 0 768 767.999994" height="1024" preserveAspectRatio="xMidYMid meet" version="1.2"><g id="03266c3573"><path style=" stroke:none;fill-rule:nonzero;fill:#ffffff;fill-opacity:1;" d="M 384.070312 168.972656 C 333.144531 168.972656 291.859375 210.25 291.859375 261.175781 C 291.859375 312.101562 333.144531 353.386719 384.070312 353.386719 C 434.992188 353.386719 476.273438 312.101562 476.273438 261.175781 C 476.273438 210.25 434.992188 168.972656 384.070312 168.972656 "/><path style=" stroke:none;fill-rule:nonzero;fill:#ffffff;fill-opacity:1;" d="M 384.070312 619.230469 C 384.070312 619.230469 211.019531 383.75 211.019531 288.175781 C 211.019531 192.605469 288.496094 115.128906 384.070312 115.128906 C 479.636719 115.128906 557.117188 192.605469 557.117188 288.175781 C 557.117188 383.75 384.070312 619.230469 384.070312 619.230469 Z M 384.070312 0.0273438 C 171.96875 0.0273438 0.0273438 171.96875 0.0273438 384.070312 C 0.0273438 596.167969 171.96875 768.105469 384.070312 768.105469 C 596.167969 768.105469 768.105469 596.167969 768.105469 384.070312 C 768.105469 171.96875 596.167969 0.0273438 384.070312 0.0273438 "/></g></svg>