<svg xmlns="http://www.w3.org/2000/svg" xmlns:xlink="http://www.w3.org/1999/xlink" width="500" zoomAndPan="magnify" viewBox="0 0 375 374.999991" height="500" preserveAspectRatio="xMidYMid meet" version="1.0"><defs><clipPath id="3a243c6caa"><path d="M 37.5 37.5 L 337.5 37.5 L 337.5 337.5 L 37.5 337.5 Z M 37.5 37.5 " clip-rule="nonzero"/></clipPath></defs><path fill="#000000" d="M 187.527344 103.503906 C 167.632812 103.503906 151.507812 119.628906 151.507812 139.523438 C 151.507812 159.414062 167.632812 175.542969 187.527344 175.542969 C 207.417969 175.542969 223.542969 159.414062 223.542969 139.523438 C 223.542969 119.628906 207.417969 103.503906 187.527344 103.503906 " fill-opacity="1" fill-rule="nonzero"/><g clip-path="url(#3a243c6caa)"><path fill="#000000" d="M 187.527344 279.386719 C 187.527344 279.386719 119.929688 187.402344 119.929688 150.070312 C 119.929688 112.734375 150.195312 82.472656 187.527344 82.472656 C 224.859375 82.472656 255.125 112.734375 255.125 150.070312 C 255.125 187.402344 187.527344 279.386719 187.527344 279.386719 Z M 187.527344 37.511719 C 104.675781 37.511719 37.511719 104.675781 37.511719 187.527344 C 37.511719 270.378906 104.675781 337.539062 187.527344 337.539062 C 270.378906 337.539062 337.539062 270.378906 337.539062 187.527344 C 337.539062 104.675781 270.378906 37.511719 187.527344 37.511719 " fill-opacity="1" fill-rule="nonzero"/></g></svg>